# Alias OBJ Model File
# Exported from SketchUp, (c) 2000-2012 Trimble Navigation Limited
# File units = inches

mtllib fb4.mtl

g Mesh1 f1 Group1 Model

usemtl FrontColor
v -3.96901 98.8657 502.563
vt -5.54789 10.5441
vn -0.57735 -0.57735 0.57735
v -3.89238 98.8657 502.563
vt -5.47126 10.5441
vn 0.106225 -0.886807 0.449766
v -3.34066 98.9998 502.563
vt -4.91954 10.6782
vn 0.150932 -0.88117 0.448061
v -2.69698 99.065 502.563
vt -4.27586 10.7433
vn -0.0132614 -0.893123 0.449617
v -1.91633 98.9625 502.563
vt -3.49521 10.6408
vn -0.291168 -0.841744 0.454629
v -1.39813 98.655 502.563
vt -2.97701 10.3333
vn -0.648249 -0.605272 0.461973
v -1.1079 98.0793 502.563
vt -2.68678 9.75766
vn -0.855103 -0.25202 0.453083
v -1.01115 97.1722 502.563
vt -2.59004 8.85057
vn -0.892913 -0.0474811 0.447719
v -1.01115 96.881 502.563
vt -2.59004 8.55939
vn -0.57735 0.57735 0.57735
v -3.3943 96.881 502.563
vt -4.97318 8.55939
v -3.3943 95.6856 502.563
vt -4.97318 7.36398
v -1.05713 95.6856 502.563
vt -2.63602 7.36398
v -1.05713 88.3217 502.563
vt -2.63602 0
v 0.383483 88.3217 502.563
vt -1.1954 0
vn 0.57735 -0.57735 0.57735
v 0.383483 95.6856 502.563
vt -1.1954 7.36398
v 1.35666 95.6856 502.563
vt -0.222222 7.36398
v 1.35666 96.881 502.563
vt -0.222222 8.55939
vn 0.57735 0.57735 0.57735
v 0.383483 96.881 502.563
vt -1.1954 8.55939
v 0.383483 97.1646 502.563
vt -1.1954 8.84291
vn 0.893882 0.0285116 0.447396
v 0.337027 97.8921 502.563
vt -1.24186 9.5704
vn 0.885163 0.124721 0.448254
v 0.197659 98.5266 502.563
vt -1.38123 10.205
vn 0.850853 0.273159 0.448813
v -0.0346208 99.0683 502.563
vt -1.61351 10.7466
vn 0.776967 0.44084 0.449424
v -0.359812 99.5171 502.563
vt -1.9387 11.1954
vn 0.656348 0.605768 0.449725
v -0.77169 99.8691 502.563
vt -2.35057 11.5474
vn 0.496695 0.742341 0.449693
v -1.26403 100.121 502.563
vt -2.84291 11.7989
vn 0.31877 0.834585 0.44928
v -1.83682 100.271 502.563
vt -3.41571 11.9497
vn 0.148712 0.881234 0.448677
v -2.49008 100.322 502.563
vt -4.06897 12
vn 0.0102628 0.893985 0.447978
v -3.27169 100.28 502.563
vt -4.85057 11.9579
vn -0.0849965 0.890226 0.447519
v -3.96901 100.184 502.563
vt -5.54789 11.8621
vn -0.628048 0.547675 0.552818
f 1/1/1 2/2/2 3/3/3 4/4/4 5/5/5 6/6/6 7/7/7 8/8/8 9/9/9 10/10/9 11/11/1 12/12/1 13/13/1 14/14/10 15/15/10 16/16/10 17/17/11 18/18/11 19/19/12 20/20/13 21/21/14 22/22/15 23/23/16 24/24/17 25/25/18 26/26/19 27/27/20 28/28/21 29/29/22 

vt 5.47126 0
vt 5.54789 0
v -3.96901 98.8657 501.563
vt 5.54789 1
vn -0.57735 -0.57735 -0.57735
v -3.89238 98.8657 501.563
vt 5.47126 1
vn 0.106225 -0.886807 -0.449766
f 2/30/2 1/31/1 30/32/23 31/33/24 

vt 10.5441 0
vt 11.8621 0
v -3.96901 100.184 501.563
vt 11.8621 1
vn -0.628048 0.547675 -0.552818
vt 10.5441 1
f 1/34/1 29/35/22 32/36/25 30/37/23 

vt -3.88203 0
vt -3.17817 0
v -3.27169 100.28 501.563
vt -3.17817 1
vn -0.0849965 0.890226 -0.447519
vt -3.88203 1
f 29/38/22 28/39/21 33/40/26 32/41/25 

vt -4.19969 0
vt -3.41694 0
v -2.49008 100.322 501.563
vt -3.41694 1
vn 0.0102628 0.893985 -0.447978
vt -4.19969 1
f 28/42/21 27/43/20 34/44/27 33/45/26 

vt -4.97799 0
vt -4.3228 0
v -1.83682 100.271 501.563
vt -4.3228 1
vn 0.148712 0.881234 -0.448677
vt -4.97799 1
f 27/46/20 26/47/19 35/48/28 34/49/27 

vt -6.34657 0
vt -5.75424 0
v -1.26403 100.121 501.563
vt -5.75424 1
vn 0.31877 0.834585 -0.44928
vt -6.34657 1
f 26/50/19 25/51/18 36/52/29 35/53/28 

vt -7.89821 0
vt -7.34539 0
v -0.77169 99.8691 501.563
vt -7.34539 1
vn 0.496695 0.742341 -0.449693
vt -7.89821 1
f 25/54/18 24/55/17 37/56/30 36/57/29 

vt -9.28923 0
vt -8.74742 0
v -0.359812 99.5171 501.563
vt -8.74742 1
vn 0.656348 0.605768 -0.449725
vt -9.28923 1
f 24/58/17 23/59/16 38/60/31 37/61/30 

vt -10.203 0
vt -9.64881 0
v -0.0346208 99.0683 501.563
vt -9.64881 1
vn 0.776967 0.44084 -0.449424
vt -10.203 1
f 23/62/16 22/63/15 39/64/32 38/65/31 

vt -10.5127 0
vt -9.92336 0
v 0.197659 98.5266 501.563
vt -9.92336 1
vn 0.850853 0.273159 -0.448813
vt -10.5127 1
f 22/66/15 21/67/14 40/68/33 39/69/32 

vt -10.2637 0
vt -9.61401 0
v 0.337027 97.8921 501.563
vt -9.61401 1
vn 0.885163 0.124721 -0.448254
vt -10.2637 1
f 21/70/14 20/71/13 41/72/34 40/73/33 

vt -9.63009 0
vt -8.90112 0
v 0.383483 97.1646 501.563
vt -8.90112 1
vn 0.893882 0.0285116 -0.447396
vt -9.63009 1
f 20/74/13 19/75/12 42/76/35 41/77/34 

vt -8.84291 0
vt -8.55939 0
v 0.383483 96.881 501.563
vt -8.55939 1
vn 0.57735 0.57735 -0.57735
vt -8.84291 1
f 19/78/12 18/79/11 43/80/36 42/81/35 

vt -0.222222 0
v 1.35666 96.881 501.563
vt -0.222222 1
vt -1.1954 1
f 18/14/11 17/82/11 44/83/36 43/84/36 

vt -7.36398 0
v 1.35666 95.6856 501.563
vt -7.36398 1
vn 0.57735 -0.57735 -0.57735
f 17/79/11 16/85/10 45/86/37 44/80/36 

vt 0.222222 0
vt 1.1954 0
v 0.383483 95.6856 501.563
vt 1.1954 1
vt 0.222222 1
f 16/87/10 15/88/10 46/89/37 45/90/37 

vt 0 0
v 0.383483 88.3217 501.563
vt 0 1
f 15/85/10 14/91/10 47/92/37 46/86/37 

vt 2.63602 0
v -1.05713 88.3217 501.563
vt 2.63602 1
f 14/88/10 13/93/1 48/94/23 47/89/37 

vt 7.36398 0
v -1.05713 95.6856 501.563
vt 7.36398 1
f 13/91/1 12/95/1 49/96/23 48/92/23 

vt 4.97318 0
v -3.3943 95.6856 501.563
vt 4.97318 1
f 12/93/1 11/97/1 50/98/23 49/94/23 

vt 8.55939 0
v -3.3943 96.881 501.563
vt 8.55939 1
vn -0.57735 0.57735 -0.57735
f 11/95/1 10/99/9 51/100/38 50/96/23 

vt -4.97318 0
vt -2.59004 0
v -1.01115 96.881 501.563
vt -2.59004 1
vt -4.97318 1
f 10/101/9 9/102/9 52/103/38 51/104/38 

vt 8.85057 0
v -1.01115 97.1722 501.563
vt 8.85057 1
vn -0.892913 -0.0474811 -0.447719
f 9/99/9 8/105/8 53/106/39 52/100/38 

vt 9.07534 0
vt 9.98757 0
v -1.1079 98.0793 501.563
vt 9.98757 1
vn -0.855103 -0.25202 -0.453083
vt 9.07534 1
f 8/107/8 7/108/7 54/109/40 53/110/39 

vt 9.92252 0
vt 10.5672 0
v -1.39813 98.655 501.563
vt 10.5672 1
vn -0.648249 -0.605272 -0.461973
vt 9.92252 1
f 7/111/7 6/112/6 55/113/41 54/114/40 

vt 7.83316 0
vt 8.43571 0
v -1.91633 98.9625 501.563
vt 8.43571 1
vn -0.291168 -0.841744 -0.454629
vt 7.83316 1
f 6/115/6 5/116/5 56/117/42 55/118/41 

vt 4.8506 0
vt 5.63795 0
v -2.69698 99.065 501.563
vt 5.63795 1
vn -0.0132614 -0.893123 -0.449617
vt 4.8506 1
f 5/119/5 4/120/4 57/121/43 56/122/42 

vt 3.17254 0
vt 3.81951 0
v -3.34066 98.9998 501.563
vt 3.81951 1
vn 0.150932 -0.88117 -0.448061
vt 3.17254 1
f 4/123/4 3/124/3 58/125/44 57/126/43 

vt 2.2584 0
vt 2.82619 0
vt 2.82619 1
vt 2.2584 1
f 3/127/3 2/128/2 31/129/24 58/130/44 

vt 5.47126 10.5441
vt 5.54789 10.5441
vt 5.54789 11.8621
vt 4.85057 11.9579
vt 4.06897 12
vt 3.41571 11.9497
vt 2.84291 11.7989
vt 2.35057 11.5474
vt 1.9387 11.1954
vt 1.61351 10.7466
vt 1.38123 10.205
vt 1.24186 9.5704
vt 1.1954 8.84291
vt 1.1954 8.55939
vt 0.222222 8.55939
vt 0.222222 7.36398
vt 1.1954 7.36398
vt 2.63602 7.36398
vt 4.97318 7.36398
vt 4.97318 8.55939
vt 2.59004 8.55939
vt 2.59004 8.85057
vt 2.68678 9.75766
vt 2.97701 10.3333
vt 3.49521 10.6408
vt 4.27586 10.7433
vt 4.91954 10.6782
f 31/131/24 30/132/23 32/133/25 33/134/26 34/135/27 35/136/28 36/137/29 37/138/30 38/139/31 39/140/32 40/141/33 41/142/34 42/143/35 43/144/36 44/145/36 45/146/37 46/147/37 47/88/37 48/93/23 49/148/23 50/149/23 51/150/38 52/151/38 53/152/39 54/153/40 55/154/41 56/155/42 57/156/43 58/157/44 

g Mesh2 Group1 Model

v 9.85248 87.662 502.563
vt 0.9375 0
v 9.85248 102.85 502.563
vt 0.9375 15.1875
v 9.85248 102.85 503.501
vt 0 15.1875
vn 0.707107 0.707107 -0
v 9.85248 87.662 503.501
vn 0.707107 -0.707107 -0
f 59/158/37 60/159/36 61/160/45 62/91/46 

usemtl Color_I07
v -5.83502 102.85 502.563
vt -15.6875 15.1875
vt -15.6875 0
v -5.83502 87.662 502.563
f 63/160/38 60/161/36 59/162/37 64/91/23 

usemtl FrontColor
vt 15.6875 0.9375
vt 0 0.9375
v -5.83502 102.85 503.501
vn -0.707107 0.707107 -0
vt 15.6875 0
f 60/163/36 63/164/38 65/91/47 61/165/45 

vt -0.9375 15.1875
vt -0.9375 0
v -5.83502 87.662 503.501
vn -0.707107 -0.707107 -0
f 63/166/38 64/167/23 66/91/48 65/160/47 

vt -15.6875 0.9375
f 64/164/23 59/168/37 62/162/46 66/91/48 

